<svg xmlns="http://www.w3.org/2000/svg" width="100" height="100" fill="none"><path fill="#FFFC00" d="M0 20C0 8.954 8.954 0 20 0h60c11.046 0 20 8.954 20 20v60c0 11.046-8.954 20-20 20H20C8.954 100 0 91.046 0 80V20Z"/><path fill="#000" d="M33.483 22.031c4.279-5.501 11.719-7.343 16.562-7.343 4.844 0 12.284 1.842 16.563 7.343 4.375 5.625 4.375 11.875 3.594 21.563.677.781 1.875.24 4.843-.625 3.75-1.094 5.625 2.343 4.375 4.375-1.764 2.866-8.593 2.5-8.593 5.781 0 1.936 2.5 6.094 6.406 9.844 5.156 4.95 9.219 3.593 10.156 5.468 1.329 2.658-4.141 4.906-9.651 5.585a.597.597 0 0 0-.488.364c-.833 2.109.312 3.013-1.58 4.364-1.093.781-6.093-1.584-11.093.313-4.532 1.718-6.72 6.25-14.532 6.25s-10-4.532-14.53-6.25c-5-1.897-10 .468-11.095-.313-1.892-1.351-.746-2.255-1.579-4.364a.597.597 0 0 0-.488-.364c-5.51-.68-10.98-2.927-9.651-5.585.937-1.874 5-.518 10.156-5.468 3.906-3.75 6.406-7.908 6.406-9.844 0-3.281-6.83-2.915-8.594-5.781-1.25-2.032.625-5.469 4.375-4.375 2.97.866 4.167 1.406 4.844.625-.781-9.688-.781-15.938 3.594-21.563Z"/><path fill="#fff" d="M34.733 23.438c5.625-6.093 10-6.875 15.312-6.875 5.313 0 9.688.782 15.313 6.875s3.125 20 3.125 20.937c0 .938 2.719 2 6.094.625 3.836-1.563 4.303 1.12 2.812 2.031-2.812 1.719-8.281 1.876-8.281 5.782 0 3.844 6.204 14.346 16.23 16.317.225.045.328.3.16.456-1.054.974-3.777 2.235-8.36 2.832-.436.056-.838.283-1.044.67-.415.783-.942 2.1-1.164 3.759a.324.324 0 0 1-.376.278c-2.724-.488-7.982-.812-10.29.063-4.531 1.718-7.031 6.25-14.219 6.25-7.187 0-9.687-4.532-14.218-6.25-2.308-.875-7.566-.55-10.29-.064a.324.324 0 0 1-.376-.277c-.223-1.658-.749-2.976-1.165-3.758-.206-.388-.607-.615-1.043-.671-4.583-.597-7.306-1.858-8.36-2.832-.168-.156-.065-.411.16-.456 10.026-1.971 16.23-12.473 16.23-16.317 0-3.906-5.469-4.063-8.281-5.782-1.491-.91-1.024-3.593 2.812-2.03 3.375 1.374 6.094.312 6.094-.626s-2.5-14.844 3.125-20.937Z"/></svg>