<svg xmlns="http://www.w3.org/2000/svg" width="100" height="70" fill="none"><path fill="#E80019" d="M50 0C42.7 0 14.604.159 8.89 2.864c-4.825 2.283-6.667 6.681-7.302 9.704C.003 20.116 0 35 0 35s.003 14.885 1.588 22.432c.635 3.023 2.477 7.42 7.302 9.704C14.604 69.841 42.7 70 50 70c7.3 0 35.396-.159 41.11-2.864 4.825-2.283 6.667-6.681 7.302-9.704C99.997 49.885 100 35 100 35s-.003-14.884-1.588-22.432c-.635-3.023-2.477-7.42-7.302-9.704C85.396.159 57.3 0 50 0Z"/><path fill="#fff" d="M66.25 35 40.312 49.688V20.311L66.25 35Z"/></svg>