<svg width="28" height="28" fill="none" xmlns="http://www.w3.org/2000/svg"><path d="M.184 3.684c0-.41.878-1.638 1.961-1.638l14.68.288c6.406 0 10.957 5.736 10.957 10.774v1.79c0 7.175-5.624 10.654-10.956 10.654H2.146c-1.084 0-1.962-.415-1.962-1.487V3.685Z" fill="#fff"/><path fill-rule="evenodd" clip-rule="evenodd" d="m1.778 2.015-.23.046c-.68.134-1.289.716-1.492 1.425C.003 3.673 0 4.11 0 13.985 0 25.26-.014 24.41.183 24.835c.247.53.707.921 1.29 1.097.173.052.516.056 6.634.065 6.724.01 7.535 0 8.672-.116 3.456-.352 6.081-1.422 7.996-3.262 1.165-1.118 1.997-2.462 2.546-4.112.754-2.266.879-5.275.325-7.813-.709-3.245-2.599-5.723-5.443-7.135-1.856-.922-4.04-1.416-6.772-1.532-.646-.028-13.516-.038-13.653-.012Zm14.343.705c1.714.165 2.878.39 4.094.792 4.08 1.347 6.439 4.207 6.983 8.47.13 1.02.157 2.444.063 3.43-.265 2.792-1.22 4.978-2.894 6.63-1.106 1.092-2.44 1.885-4.124 2.45-1.334.448-2.885.72-4.628.814-.828.044-13.677.04-13.89-.004A1.348 1.348 0 0 1 .695 24.28c-.05-.23-.05-20.33 0-20.56.103-.484.485-.88.977-1.015.191-.053 13.898-.039 14.45.015ZM3.923 11.8c-.256.03-.425.08-.658.197a1.897 1.897 0 0 0-1.025 1.328 1.66 1.66 0 0 0 0 .775 1.912 1.912 0 0 0 1.1 1.359c.29.133.53.175.91.159.388-.017.679-.11.984-.316a1.912 1.912 0 0 0 .206-3.024c-.4-.359-.979-.541-1.517-.478Zm-.165 4.995a1.482 1.482 0 0 0-.945.791c-.112.232-.114.244-.132.708-.01.259-.01.983 0 1.61l.02 1.137.118.344a2.914 2.914 0 0 0 1.008 1.406c.449.337 1.012.552 1.554.593l.243.018v-2.667c0-2.898 0-2.869-.172-3.206-.17-.332-.533-.619-.93-.734a1.67 1.67 0 0 0-.764 0Z" fill="#000"/><path fill-rule="evenodd" clip-rule="evenodd" d="M8.636 4.653c-.525.14-.905.548-.99 1.061-.019.116-.03 3.355-.03 8.932v8.75l4.406-.01c4.792-.013 4.719-.01 5.823-.192 2.293-.376 4.133-1.313 5.371-2.737 1.466-1.686 2.176-3.977 2.104-6.79-.025-.983-.103-1.62-.3-2.443-.282-1.184-.778-2.272-1.442-3.164-.238-.32-.327-.42-.726-.823-1.549-1.565-3.75-2.43-6.608-2.599-.3-.018-1.987-.03-3.985-.03-2.88.002-3.49.01-3.623.045Zm2.367 7.064c.59.197.99.625 1.167 1.251.078.276.094.976.03 1.29-.154.75-.542 1.218-1.202 1.448l-.24.083-2.253.021v-4.197l2.253.022.245.082Zm5.01.69h-2.206v.88h2.023v.728h-2.023v1.002h2.268v.789h-3.218v-4.188h3.157v.789Zm4.772 3.384-.461.008a5.367 5.367 0 0 1-.493-.004c-.018-.006-.1-.218-.184-.47l-.152-.46h-1.57l-.333.94h-.47c-.435 0-.47-.003-.457-.052.021-.073 1.558-4.084 1.576-4.114.008-.012.23-.02.492-.015l.478.009 1.574 4.158Zm1.512-.774h2.053v.789h-3.004v-4.188h.95v3.399Zm-12.842 0h.485c.537 0 .74-.039.925-.177.156-.116.207-.18.31-.388.112-.23.15-.532.117-.924-.05-.576-.239-.877-.653-1.04-.13-.052-.245-.064-.67-.075l-.514-.013v2.617Zm9.243-2.307a55.635 55.635 0 0 0-.508 1.432c0 .014.235.025.523.025h.523l-.022-.068c-.15-.48-.502-1.424-.516-1.389Z" fill="#D50172"/></svg>