<svg xmlns="http://www.w3.org/2000/svg" width="100" height="100" fill="none"><path fill="#000" d="M0 20C0 8.954 8.954 0 20 0h60c11.046 0 20 8.954 20 20v60c0 11.046-8.954 20-20 20H20C8.954 100 0 91.046 0 80V20Z"/><path fill="#fff" d="M44.375 42.5v9.375a7.251 7.251 0 0 0-2.945-.625h-.445c-5.376 0-9.735 4.451-9.735 9.828 0 3.546 1.877 6.697 4.686 8.48 1.773 2.79 4.88 4.66 8.4 4.66 5.523 0 10.039-4.476 10.039-10v-47.03h9.279a16.244 16.244 0 0 0 6.212 10.289A16.244 16.244 0 0 0 80 33.662v8.994l-2.788-.125A24.38 24.38 0 0 1 63.437 37.5v23.75c0 12.254-10.012 22.188-22.265 22.188a22.062 22.062 0 0 1-14.016-5.007 21.871 21.871 0 0 1-4.968-13.9v-1.126C22.188 50.781 32.5 42.5 43.093 42.5h1.282Z"/><path fill="#00F3EE" fill-rule="evenodd" d="M51.25 14.063h12.188v.467c0 .905.074 1.793.216 2.658h-9.279v47.03c0 5.524-4.516 10-10.04 10-3.519 0-6.626-1.87-8.399-4.66a9.82 9.82 0 0 0 5.275 1.536c5.523 0 10.039-4.477 10.039-10V14.062Zm18.616 13.414A16.244 16.244 0 0 0 80 33.662v-2.88l-.39-.003a16.179 16.179 0 0 1-9.744-3.302ZM27.156 78.43a21.871 21.871 0 0 1-4.968-13.9v-1.126C22.188 50.781 32.5 42.5 43.093 42.5h1.282v-2.813a12.814 12.814 0 0 0-2.813-.312h-1.594c-10.593 0-20.906 8.281-20.906 20.905v1.126c0 6.858 3.159 12.985 8.094 17.026Z" clip-rule="evenodd"/><path fill="#FC2854" fill-rule="evenodd" d="M34.375 64.203c0 1.96.574 3.8 1.561 5.354-2.81-1.782-4.686-4.933-4.686-8.48 0-5.376 4.359-9.827 9.735-9.827h.445c1.014 0 2.018.213 2.945.625V42.5h.313c.957 0 1.877.105 2.812.313V55a7.251 7.251 0 0 0-2.945-.625h-.445c-5.376 0-9.735 4.451-9.735 9.828ZM27.156 78.43c4.062 4.962 10.244 8.132 17.14 8.132 12.254 0 22.267-9.934 22.267-22.188v-23.75a24.38 24.38 0 0 0 13.774 5.031l2.788.125V33.906l-.39-.002A16.36 16.36 0 0 1 80 33.662v8.994l-2.788-.125A24.38 24.38 0 0 1 63.437 37.5v23.75c0 12.254-10.012 22.188-22.265 22.188a22.062 22.062 0 0 1-14.016-5.007Zm42.71-50.954a16.244 16.244 0 0 1-6.212-10.29h2.908v.468c0 3.69 1.23 7.093 3.304 9.822Z" clip-rule="evenodd"/></svg>