<svg xmlns="http://www.w3.org/2000/svg" width="100" height="100" fill="none"><path fill="#000" d="M0 20C0 8.954 8.954 0 20 0h60c11.046 0 20 8.954 20 20v60c0 11.046-8.954 20-20 20H20C8.954 100 0 91.046 0 80V20Z"/><path fill="#fff" fill-rule="evenodd" d="M19.75 18.937a.313.313 0 0 1 .25-.5H37.66c.099 0 .191.047.25.126l16.56 22.235 20.754-22.261c.06-.063.142-.1.229-.1h4.77c.273 0 .415.326.229.526L56.968 44.152 82.13 77.938c.154.206.007.5-.25.5H64.223a.313.313 0 0 1-.251-.126L46.718 55.146 25.096 78.338a.312.312 0 0 1-.229.1h-4.77a.312.312 0 0 1-.229-.526l24.352-26.12-24.47-32.855ZM36.253 22.5h-9.062l38.75 51.875h9.062L36.253 22.5Z" clip-rule="evenodd"/></svg>