<svg xmlns="http://www.w3.org/2000/svg" width="100" height="100" fill="none"><path fill="#CA2127" d="M0 50C0 22.386 22.386 0 50 0s50 22.386 50 50-22.386 50-50 50S0 77.614 0 50Z"/><path fill="#fff" d="M31.875 75.937c-2.187 8.438-1.302 16.667-.781 21.094 7.75-4.375 11.875-19.948 12.969-27.188 4.531 3.75 11.463 6.822 18.906 4.532C85.312 67.5 87.344 38.281 77.03 26.562c-9.9-11.25-40-17.812-55.625 4.375-11.554 16.407 0 32.031 8.594 32.031l1.407-6.718c-2.344-2.032-4.052-5.156-4.376-6.094-4.375-12.656 12.961-33.553 34.22-23.594 17.343 8.125 7.785 34.857 0 38.75-7.787 3.893-16.72.469-12.657-11.093 3.068-8.733 5.313-15.47 1.875-18.438-3.438-2.969-10.313-2.813-13.438 5-2.5 6.25-.729 11.563.47 13.438-.99 4.427-3.885 15.005-5.626 21.718Z"/></svg>