<svg xmlns="http://www.w3.org/2000/svg" width="100" height="99" fill="none"><path fill="url(#a)" d="M0 23.203C0 10.388 10.493 0 23.438 0h53.124C89.507 0 100 10.388 100 23.203v52.594C100 88.612 89.507 99 76.562 99H23.438C10.492 99 0 88.612 0 75.797V23.203Z"/><path fill="url(#b)" d="M.062 21.508A23.3 23.3 0 0 0 0 23.203v52.594C0 88.612 10.493 99 23.438 99h53.124C89.507 99 100 88.612 100 75.797v-24.97C89.67 29.015 64.46 13.611 35 13.611c-12.725 0-24.656 2.874-34.938 7.896Z"/><path fill="#fff" fill-rule="evenodd" d="M15.595 24.187c-2.47 4.618-2.47 10.708-2.47 22.887v4.542c0 12.18 0 18.27 2.47 22.887a21.144 21.144 0 0 0 8.836 8.749c4.665 2.445 10.817 2.445 23.119 2.445h4.9c12.302 0 18.453 0 23.118-2.445a21.144 21.144 0 0 0 8.837-8.749c2.47-4.618 2.47-10.708 2.47-22.887v-4.541c0-12.18 0-18.27-2.47-22.888a21.144 21.144 0 0 0-8.837-8.748c-4.665-2.445-10.816-2.445-23.118-2.445h-4.9c-12.302 0-18.453 0-23.118 2.445a21.144 21.144 0 0 0-8.837 8.748Zm8.394-.438c-4.302 4.26-4.302 11.114-4.302 24.823v1.547c0 13.709 0 20.563 4.302 24.822S35.215 79.2 49.062 79.2h1.876c13.847 0 20.77 0 25.073-4.259 4.302-4.259 4.302-11.113 4.302-24.822v-1.547c0-13.71 0-20.564-4.302-24.823-4.302-4.258-11.226-4.258-25.073-4.258h-1.876c-13.847 0-20.77 0-25.073 4.259Z" clip-rule="evenodd"/><path fill="#fff" fill-rule="evenodd" d="M49.844 68.063c10.441 0 18.906-8.38 18.906-18.718 0-10.337-8.465-18.717-18.906-18.717-10.442 0-18.907 8.38-18.907 18.717 0 10.337 8.465 18.718 18.907 18.718Zm0-6.188c6.99 0 12.656-5.61 12.656-12.53 0-6.92-5.666-12.53-12.656-12.53s-12.657 5.61-12.657 12.53c0 6.92 5.667 12.53 12.657 12.53Z" clip-rule="evenodd"/><path fill="#fff" d="M74.063 30.01c0 2.391-1.96 4.33-4.376 4.33-2.416 0-4.374-1.939-4.374-4.33 0-2.393 1.958-4.332 4.374-4.332 2.417 0 4.376 1.94 4.376 4.331Z"/><defs><radialGradient id="a" cx="0" cy="0" r="1" gradientTransform="matrix(99.99995 99.00001 -98.99508 99.99498 0 0)" gradientUnits="userSpaceOnUse"><stop offset=".042" stop-color="#3D6CC8"/><stop offset=".125" stop-color="#6C46F1"/><stop offset=".479" stop-color="#C132BF"/><stop offset="1" stop-color="#EB356B"/></radialGradient><radialGradient id="b" cx="0" cy="0" r="1" gradientTransform="rotate(61.111 -67.886 66.825) scale(85.418 93.1129)" gradientUnits="userSpaceOnUse"><stop stop-color="#FD5"/><stop offset=".427" stop-color="#EF8031"/><stop offset=".693" stop-color="#EB356B"/><stop offset=".875" stop-color="#EB356B" stop-opacity="0"/></radialGradient></defs></svg>