<svg version="1.1" id="Layer_1" xmlns="http://www.w3.org/2000/svg" x="0" y="0" viewBox="0 0 28 28" style="enable-background:new 0 0 28 28" xml:space="preserve"><style>.st1{fill:#fff}</style><radialGradient id="SVGID_1_" cx="-484.64" cy="519.49" r=".28" gradientTransform="scale(-141.421 141.421) rotate(45 384.661 844.519)" gradientUnits="userSpaceOnUse"><stop offset=".245" style="stop-color:#25d366"/><stop offset="1" style="stop-color:#1aa75f"/></radialGradient><path d="M0 5.3C0 2.4 2.4 0 5.3 0h17.4C25.6 0 28 2.4 28 5.3v17.4c0 2.9-2.4 5.3-5.3 5.3H5.3C2.4 28 0 25.6 0 22.7V5.3z" style="fill:url(#SVGID_1_)"/><path class="st1" d="M14.2 4.8c-4.9 0-8.9 4-8.9 8.9 0 1.7.5 3.2 1.3 4.6L4.9 23l4.9-1.6c1.3.7 2.7 1.1 4.3 1.1 4.9 0 8.9-4 8.9-8.9.1-4.8-3.9-8.8-8.8-8.8zm0 16.4c-1.5 0-3-.5-4.1-1.2l-2.8.9.9-2.7c-.9-1.2-1.4-2.8-1.4-4.4 0-4.1 3.4-7.5 7.5-7.5s7.5 3.4 7.5 7.5c-.1 4-3.5 7.4-7.6 7.4z"/><path class="st1" d="M9.9 11.4c.1-1.1.8-1.7 1.1-1.8h.8c.2.1.8 1.7 1 2.1.1.2-.5.8-.7 1-.2.2 0 .5.6 1.3s2 1.6 2.4 1.7c.2.1.3 0 .4-.1.7-.9.7-1 1-1s2.1.9 2.1 1c.1.1.1.8-.2 1.2-.3.4-.9.8-1.7.9-.5.1-2.8-.4-4.3-1.8-1.4-1.3-2.7-3-2.5-4.5z"/></svg>