<svg width="28" height="28" fill="none" xmlns="http://www.w3.org/2000/svg"><g clip-path="url(#a)"><path d="m6.403 14.597 4.461-10.089H28v19.05H10.005v-8.96H6.403Z" fill="#fff"/><path fill-rule="evenodd" clip-rule="evenodd" d="M0 28h28v-4.443h-3.37l-.866-.961c-.477-.529-.874-.961-.88-.961-.008 0-.407.432-.888.961l-.873.961H10.005v-8.96H8.212c-1.012 0-1.791-.007-1.788-.016l2.227-5.04 2.22-5.024h4.28l.76 1.713c.42.942.77 1.72.779 1.73.01.011.017-.668.017-1.712v-1.73l5.306.009.456 1.288c.252.708.463 1.294.47 1.301.007.007.222-.574.479-1.293l.466-1.306H28V0H0v28ZM9.916 9.52l-1.733 3.93c-.01.025.122.027 1.178.023l1.19-.005.641-1.55 3.588-.009.144.34.331.785.188.443h4.549l.01-5.385 1.978 5.386 1.902-.01 1.98-5.402.01 5.411H28V5.62h-3.3l-.028.079c-.058.167-1.715 4.765-1.72 4.769a324.55 324.55 0 0 1-.87-2.422l-.867-2.426h-3.37l-.009 7.769-1.473-3.339-1.715-3.884-.242-.546h-2.768l-1.722 3.9Zm3.6-.639.516 1.246-1.037.005c-.57.002-1.038.001-1.042-.002a98.025 98.025 0 0 1 1.037-2.495c.006 0 .243.561.527 1.246Zm-2.335 13.575 9.418-.001 1.146-1.26c.63-.692 1.148-1.259 1.151-1.259.003 0 .52.567 1.148 1.26l1.143 1.26h1.406c.842 0 1.407-.007 1.407-.017 0-.014-3.23-3.455-3.588-3.822l-.112-.114 1.845-1.934a224.428 224.428 0 0 0 1.852-1.953c.004-.012-.476-.019-1.383-.019h-1.39L24.09 15.84a80.51 80.51 0 0 1-1.148 1.241c-.007 0-.518-.559-1.137-1.241l-1.125-1.242h-9.498v7.859Zm8.578-5.815a229.857 229.857 0 0 1 1.76 1.876c.003.01-.816.888-1.82 1.953l-1.826 1.936-.01-1.78h-4.535v-1.213h4.424v-1.792h-4.424v-1.194h4.536l.001-1.802.07.079c.038.043.859.914 1.824 1.937Zm6.073 1.86.08.087c.044.049.53.566 1.08 1.151l.999 1.063.005-1.153c.002-.634.002-1.664 0-2.289l-.005-1.135-2.159 2.276Z" fill="#0971CE"/></g><defs><clipPath id="a"><path fill="#fff" d="M0 0h28v28H0z"/></clipPath></defs></svg>