<svg width="28" height="28" fill="none" xmlns="http://www.w3.org/2000/svg"><path d="M10.631 9.16 6.965 17.93H4.574L2.77 10.93c-.11-.43-.205-.589-.538-.77C1.688 9.865.79 9.587 0 9.415l.054-.255h3.85c.49 0 .931.328 1.043.894l.953 5.074L8.254 9.16h2.377Zm9.371 5.906c.01-2.314-3.192-2.442-3.17-3.476.007-.314.306-.649.96-.734.324-.043 1.217-.075 2.23.392l.398-1.86A6.066 6.066 0 0 0 18.303 9c-2.236 0-3.81 1.192-3.823 2.899-.014 1.262 1.123 1.966 1.98 2.386.882.43 1.178.705 1.175 1.09-.006.588-.703.847-1.355.858-1.137.017-1.797-.309-2.323-.554l-.41 1.92c.529.244 1.504.456 2.516.467 2.377 0 3.932-1.177 3.94-3Zm5.905 2.863H28L26.173 9.16h-1.931c-.434 0-.8.254-.963.644l-3.395 8.125h2.376l.471-1.31h2.903l.273 1.31Zm-2.524-3.107 1.19-3.292.686 3.292h-1.876Zm-9.52-5.662-1.87 8.769H9.731l1.871-8.769h2.262Z" fill="#1434CB"/></svg>