<svg width="28" height="28" viewBox="0 0 28 28" fill="none" xmlns="http://www.w3.org/2000/svg">
<path d="M11.8721 5.59925C11.6804 5.59941 11.4951 5.66811 11.3494 5.793C11.2037 5.9179 11.1071 6.0908 11.0772 6.28064L9.75638 14.6806C9.81796 14.2883 10.1551 13.9992 10.5513 13.9992H14.4216C18.3168 13.9992 21.622 11.1499 22.226 7.28854C22.2709 7.00026 22.2964 6.70926 22.3022 6.41754C21.3123 5.89707 20.1495 5.59925 18.8753 5.59925H11.8721Z" fill="#001C64"/>
<path d="M22.3022 6.41785C22.2964 6.70958 22.2709 7.00057 22.226 7.28885C21.622 11.1502 18.3165 13.9995 14.4216 13.9995H10.5513C10.1554 13.9995 9.81795 14.2883 9.75638 14.6809L7.78125 27.2422C7.7664 27.3358 7.77197 27.4314 7.79757 27.5226C7.82318 27.6138 7.86822 27.6983 7.92957 27.7704C7.99092 27.8424 8.06712 27.9003 8.15293 27.9399C8.23873 27.9795 8.33209 28 8.42657 28H12.6275C12.8192 27.9998 13.0045 27.9311 13.1502 27.8062C13.2959 27.6814 13.3924 27.5084 13.4224 27.3186L14.5289 20.2811C14.5589 20.0912 14.6555 19.9182 14.8013 19.7933C14.9471 19.6684 15.1326 19.5997 15.3244 19.5997H17.7978C21.693 19.5997 24.9982 16.7504 25.6021 12.889C26.031 10.1485 24.6546 7.65465 22.3022 6.41785Z" fill="#0070E0"/>
<path d="M7.09955 0C6.70366 0 6.36624 0.288772 6.30466 0.680767L3.00811 21.642C2.9456 22.0399 3.25225 22.3998 3.65406 22.3998H8.54257L9.75638 14.6809L11.0772 6.28095C11.1071 6.09111 11.2037 5.91821 11.3494 5.79331C11.4951 5.66842 11.6804 5.59972 11.8721 5.59956H18.8753C20.1498 5.59956 21.3123 5.89769 22.3022 6.41785C22.37 2.90238 19.4771 0 15.4998 0H7.09955Z" fill="#003087"/>
</svg>
