<svg version="1.1" id="Layer_1" xmlns="http://www.w3.org/2000/svg" x="0" y="0" viewBox="0 0 100 100" style="enable-background:new 0 0 100 100" xml:space="preserve"><style>.st0{fill:#fff}</style><path class="st0" d="M0 28c0-4.4 3.6-8 8-8h84c4.4 0 8 3.6 8 8v44c0 4.4-3.6 8-8 8H8c-4.4 0-8-3.6-8-8V28z"/><path d="M92 20H8c-4.4 0-8 3.6-8 8v44c0 4.4 3.6 8 8 8h84c4.4 0 8-3.6 8-8V28c0-4.4-3.6-8-8-8zm4 52c0 2.2-1.8 4-4 4H8c-2.2 0-4-1.8-4-4V28c0-2.2 1.8-4 4-4h84c2.2 0 4 1.8 4 4v44z" style="fill:#bfbfbf"/><path d="M28.5 30.5c0-1.1.9-2 2-2h39c1.1 0 2 .9 2 2v39c0 1.1-.9 2-2 2h-39c-1.1 0-2-.9-2-2v-39z" style="fill:#e81111"/><path class="st0" d="M37.3 54.7c0 .1.1.2.2.2h1.4c.1 0 .2-.1.2-.2v-9.4c0-.1-.1-.2-.2-.2h-1.4c-.1 0-.2.1-.2.2v3.4c0 .1-.1.2-.2.2h-3.6c-.1 0-.2-.1-.2-.2v-3.4c0-.1-.1-.2-.2-.2h-1.4c-.1 0-.2.1-.2.2v9.4c0 .1.1.2.2.2h1.4c.1 0 .2-.1.2-.2v-4c0-.1.1-.2.2-.2h3.6c.1 0 .2.1.2.2v4zm5.4-7.8c0-.1.1-.2.2-.2h4.4c.1 0 .2-.1.2-.2v-1.3c0-.1-.1-.2-.2-.2h-6.2c-.1 0-.2.1-.2.2v9.4c0 .1.1.2.2.2h6.2c.1 0 .2-.1.2-.2v-1.3c0-.1-.1-.2-.2-.2h-4.4c-.1 0-.2-.1-.2-.2v-2.4c0-.1.1-.2.2-.2h3.6c.1 0 .2-.1.2-.2v-1.3c0-.1-.1-.2-.2-.2h-3.6c-.1 0-.2-.1-.2-.2v-1.5zm22.6 4.5c.1 0 .1-.1.1-.2l-1.2-3.6s0-.1-.1-.1 0 0-.1.1l-1.2 3.6c0 .1 0 .2.1.2h2.4zm-.3-6.2c.1 0 .2.1.2.2l3.2 9.4c0 .1 0 .2-.1.2h-1.5c-.1 0-.2-.1-.2-.2l-.5-1.5c0-.1-.1-.2-.2-.2h-3.5c-.1 0-.2.1-.2.2l-.5 1.5c0 .1-.1.2-.2.2H60c-.1 0-.1-.1-.1-.2l3.2-9.4c0-.1.1-.2.2-.2H65zm-11.5 9.5c-.1 0-.2-.1-.2-.2L50.9 48c0-.1-.1-.1-.1 0v6.6c0 .1-.1.2-.2.2h-1.4c-.1 0-.2-.1-.2-.2v-9.4c0-.1.1-.2.2-.2h2.1c.1 0 .2.1.2.2l2.3 6.4c0 .1 0 .1.1.1l.1-.1 2.3-6.4c0-.1.1-.2.2-.2h2.1c.1 0 .2.1.2.2v9.4c0 .1-.1.2-.2.2h-1.4c-.1 0-.2-.1-.2-.2V48c0-.1 0-.1-.1 0l-2.4 6.5c0 .1-.1.2-.2.2h-.8z"/></svg>