<svg width="28" height="28" fill="none" xmlns="http://www.w3.org/2000/svg"><path d="M17.786 6.89h-7.572v13.898h7.572V6.89Z" fill="#FF5F00"/><path d="M10.695 13.839a8.98 8.98 0 0 1 .869-3.864A8.791 8.791 0 0 1 14 6.89a8.555 8.555 0 0 0-4.424-1.84 8.494 8.494 0 0 0-4.705.839 8.72 8.72 0 0 0-3.553 3.26A8.98 8.98 0 0 0 0 13.84a8.98 8.98 0 0 0 1.318 4.689 8.719 8.719 0 0 0 3.553 3.26 8.493 8.493 0 0 0 4.705.839A8.555 8.555 0 0 0 14 20.787a8.791 8.791 0 0 1-2.436-3.085 8.98 8.98 0 0 1-.869-3.863Z" fill="#EB001B"/><path d="M28 13.839a8.979 8.979 0 0 1-1.318 4.689 8.719 8.719 0 0 1-3.553 3.26 8.493 8.493 0 0 1-4.705.839A8.555 8.555 0 0 1 14 20.787a8.807 8.807 0 0 0 2.435-3.086 8.998 8.998 0 0 0 0-7.725A8.808 8.808 0 0 0 14 6.89a8.555 8.555 0 0 1 4.424-1.84 8.494 8.494 0 0 1 4.705.839 8.72 8.72 0 0 1 3.553 3.26A8.979 8.979 0 0 1 28 13.84ZM27.174 19.316v-.285h.113v-.058H27v.058h.112v.285h.061Zm.556 0v-.344h-.088l-.1.236-.102-.236h-.087v.343h.062v-.258l.094.223h.064l.095-.224v.26h.062Z" fill="#F79E1B"/></svg>